<?xml version="1.0" encoding="utf-8"?>
<!-- Generator: Adobe Illustrator 14.0.0, SVG Export Plug-In  -->
<!DOCTYPE svg PUBLIC "-//W3C//DTD SVG 1.1//EN" "http://www.w3.org/Graphics/SVG/1.1/DTD/svg11.dtd" [
	<!ENTITY ns_flows "http://ns.adobe.com/Flows/1.0/">
]>
<svg version="1.1"
	 xmlns="http://www.w3.org/2000/svg" xmlns:xlink="http://www.w3.org/1999/xlink" xmlns:a="http://ns.adobe.com/AdobeSVGViewerExtensions/3.0/"
	 x="0px" y="0px" width="66px" height="73px" viewBox="-0.34 -0.813 66 73" enable-background="new -0.34 -0.813 66 73"
	 xml:space="preserve">
<defs>
</defs>
<path fill="#FFFFFF" d="M65.103,65.827v5.787H0.181V66.37c-0.015-0.258-0.03-0.514,0.181-0.543H65.103z"/>
<path fill="#FFFFFF" d="M64.922,10.67v3.617H0v-3.436C10.67,7.113,21.754,3.791,32.371,0h0.181
	C43.281,3.617,53.951,7.294,64.922,10.67"/>
<path fill="#FFFFFF" d="M61.667,61.667v2.17c-18.838,0.836-39.242,0.121-58.773,0.361v-2.17c-0.015-0.256-0.03-0.512,0.181-0.543
	C22.544,61.606,42.499,61.245,61.667,61.667"/>
<path fill="#FFFFFF" d="M61.667,16.095v1.989c-18.838,0.837-39.242,0.121-58.773,0.362v-1.989c-0.015-0.257-0.03-0.513,0.181-0.543
	C22.544,16.035,42.499,15.673,61.667,16.095"/>
<path fill="#FFFFFF" d="M57.869,21.339v38.699c-2.893,0.611-6.735,0.777-9.584,0V21.882c-0.016-0.256-0.03-0.512,0.181-0.543H57.869
	z M56.422,59.315c0.724-11.643,0.362-25.318,0.181-37.253h-0.541c-0.01,0.233-0.234,0.248-0.182,0.542v32.553
	C55.88,56.505,55.451,58.222,56.422,59.315 M49.913,59.315c0.723-11.633,0.36-25.318,0.181-37.253H49.55
	c0.008,0.248-0.083,0.399-0.182,0.542v27.85C49.369,53.485,48.924,56.634,49.913,59.315"/>
<path fill="#FFFFFF" d="M56.785,20.616c-3.172-0.384-8.07,0.957-9.585-1.085C49.958,19.486,56.226,18.461,56.785,20.616"/>
<path fill="#FFFFFF" d="M41.232,20.978c2.17,12.214,3.127,25.695,4.883,38.338c-2.577,0.875-6.126,1.688-9.585,1.086
	c-1.371-12.916-2.961-25.612-4.521-38.338C35.052,21.671,38.126,21.31,41.232,20.978 M44.487,58.593
	c0.129-5.787-1.07-12.199-1.81-18.445c-0.752-6.398-1.092-12.886-2.531-18.627h-0.36v0.542c0.79,9.283,2.185,18.942,3.255,27.668
	C43.425,52.858,43.289,56.069,44.487,58.593 M37.073,55.157c0.151,1.311-0.046,3.518,1.084,4.158
	c-0.707-12.252-2.817-24.668-4.158-36.891h-0.543c-0.008,0.233-0.233,0.249-0.181,0.542C34.593,33.388,35.875,44.856,37.073,55.157"
	/>
<path fill="#FFFFFF" d="M29.839,19.531c3.248-0.053,8.891-0.934,11.032,0.723C37.14,20.48,31.678,22.598,29.839,19.531"/>
<path fill="#FFFFFF" d="M30.562,21.339v38.699c-2.893,0.611-6.736,0.777-9.585,0V21.882c-0.015-0.256-0.03-0.512,0.181-0.543H30.562
	z M29.115,59.315c0.181-12.002,0.535-25.717-0.181-37.253h-0.361v0.542v32.553C28.573,56.489,28.113,58.239,29.115,59.315
	 M22.605,59.315c0.723-11.633,0.362-25.318,0.181-37.253h-0.543c-0.007,0.233-0.233,0.248-0.181,0.542v32.553
	C22.062,56.505,21.633,58.222,22.605,59.315"/>
<path fill="#FFFFFF" d="M20.074,19.531c2.931-0.098,8.168-0.934,9.765,0.904C26.983,20.458,21.565,21.475,20.074,19.531"/>
<path fill="#FFFFFF" d="M16.457,21.339v38.699c-2.818,0.643-6.623,0.746-9.404,0V21.882c-0.015-0.256-0.03-0.513,0.181-0.543H16.457
	z M15.01,59.136c0.837-11.725,0.121-24.844,0.362-36.891c-0.234-0.009-0.249-0.235-0.543-0.182c-0.007,0.234-0.233,0.249-0.18,0.543
	C14.881,34.723,14.173,47.712,15.01,59.136 M8.5,59.136c0.836-11.725,0.121-24.844,0.362-36.891
	c-0.234-0.009-0.249-0.235-0.543-0.182c-0.007,0.234-0.233,0.249-0.181,0.543C8.372,34.723,7.664,47.712,8.5,59.136"/>
<path fill="#FFFFFF" d="M15.553,20.616c-3.172-0.384-8.07,0.957-9.585-1.085C8.726,19.486,14.995,18.461,15.553,20.616"/>
</svg>
